<?xml version="1.0" encoding="UTF-8" standalone="no"?>
<svg
   xmlns:dc="http://purl.org/dc/elements/1.1/"
   xmlns:cc="http://creativecommons.org/ns#"
   xmlns:rdf="http://www.w3.org/1999/02/22-rdf-syntax-ns#"
   xmlns:svg="http://www.w3.org/2000/svg"
   xmlns="http://www.w3.org/2000/svg"
   height="512px"
   width="512px"
   xml:space="preserve"
   style="enable-background:new 0 0 202.882 202.882;"
   viewBox="0 0 202.882 202.882"
   y="0px"
   x="0px"
   id="Capa_1"
   version="1.1"><metadata
   id="metadata104"><rdf:RDF><cc:Work
       rdf:about=""><dc:format>image/svg+xml</dc:format><dc:type
         rdf:resource="http://purl.org/dc/dcmitype/StillImage" /><dc:title></dc:title></cc:Work></rdf:RDF></metadata><defs
   id="defs102" />
<path
   fill="#888888"
   id="path67"
   d="M107.613,117.839L82.596,92.822l48.164-40.466l17.319,17.319L107.613,117.839z M189.924,9.311  c-0.211-1.258-0.424-2.253-0.621-3.036c-0.538,0.669-1.198,1.549-1.999,2.708c-4.048,5.859-9.49,9.223-15.736,9.73  c-0.867,0.07-1.756,0.106-2.644,0.106c-3.341,0-6.313-0.499-8.935-0.938c-2.153-0.361-4.186-0.702-6.07-0.702  c-2.376,0-5.372,0.46-9.576,3.872c-7.462,6.056-8.058,18.256-8.009,22.741l19.658,19.658c0.509,0.036,1.146,0.064,1.889,0.064  c5.303,0,15.611-1.411,25.06-10.86C193.774,41.82,192.363,23.8,189.924,9.311z M180.43,186.666c-0.276,0.276-0.554,0.549-0.833,0.82  c-5.699,5.522-13.214,8.564-21.157,8.564c-8.138,0-15.789-3.168-21.543-8.922l-21.689-21.689c-3.861-3.861-8.994-5.987-14.454-5.987  c-5.46,0-10.593,2.126-14.454,5.987l-5.928,5.928c-5.725,5.725-13.334,8.878-21.427,8.878c-0.001,0-0.001,0-0.002,0  c-3.323,0-6.556-0.544-9.607-1.577c14.046-12.563,30.396-28.692,48.771-47.08l3.708-3.71c0.287-0.287,0.562-0.566,0.845-0.851  l1.74,1.74c0.94,0.939,2.212,1.464,3.535,1.464c0.072,0,0.145-0.001,0.217-0.005c1.4-0.061,2.71-0.706,3.612-1.779l46.155-54.935  c5.51-0.005,15.149-1.175,24.937-7.842C209.825,106.802,210.079,157.016,180.43,186.666z M182.788,126.52  c0-2.761-1.075-5.356-3.027-7.308c-1.953-1.953-4.548-3.027-7.309-3.027s-5.356,1.075-7.309,3.027c-4.03,4.03-4.03,10.587,0,14.617  c1.952,1.952,4.548,3.027,7.309,3.027s5.356-1.075,7.308-3.027C181.714,131.876,182.788,129.28,182.788,126.52z M21.112,151.304  C-6.929,109.878-7.59,58.728,22.451,28.687c14.53-14.53,34.94-22.532,57.471-22.532c17.703,0,35.716,4.769,52.44,13.555  c-5.236,8.175-6.028,18.18-6.04,23.314l-54.334,45.65c-1.073,0.901-1.718,2.211-1.779,3.612c-0.061,1.4,0.469,2.761,1.459,3.752  l1.74,1.74c-0.284,0.283-0.562,0.556-0.851,0.845c-2.964,2.964-6.021,6.005-9.129,9.098  C46.801,124.262,32.429,138.776,21.112,151.304z M82.248,40.593c0,2.761,1.075,5.356,3.027,7.308  c1.953,1.953,4.548,3.027,7.309,3.027s5.356-1.075,7.308-3.027c1.953-1.953,3.027-4.548,3.027-7.309s-1.075-5.356-3.027-7.309  c-1.952-1.952-4.547-3.027-7.308-3.027s-5.356,1.075-7.308,3.027C83.323,35.237,82.248,37.833,82.248,40.593z M26.642,61.342  c0,3.361,1.309,6.521,3.686,8.898c2.376,2.377,5.537,3.686,8.898,3.686s6.521-1.309,8.898-3.686  c2.377-2.376,3.686-5.537,3.686-8.898s-1.309-6.521-3.686-8.898s-5.537-3.686-8.898-3.686s-6.521,1.309-8.898,3.686  C27.952,54.82,26.642,57.98,26.642,61.342z M91.031,124.519l3.711-3.713c0.287-0.287,0.562-0.566,0.845-0.851l-15.107-15.107  c-0.285,0.283-0.562,0.556-0.851,0.845c-2.971,2.97-6.033,6.017-9.147,9.115c-17.355,17.267-37.026,36.837-50.475,53.005  C-0.045,191.92,3.93,196.484,3.973,196.527c0.17,0.174,0.652,0.2,0.924,0.2c3.257,0,12.176-3.033,35.319-23.349  C56.425,159.15,74.81,140.751,91.031,124.519z" />
<g
   id="g69">
</g>
<g
   id="g71">
</g>
<g
   id="g73">
</g>
<g
   id="g75">
</g>
<g
   id="g77">
</g>
<g
   id="g79">
</g>
<g
   id="g81">
</g>
<g
   id="g83">
</g>
<g
   id="g85">
</g>
<g
   id="g87">
</g>
<g
   id="g89">
</g>
<g
   id="g91">
</g>
<g
   id="g93">
</g>
<g
   id="g95">
</g>
<g
   id="g97">
</g>
<g
   id="layer1"><g
     transform="matrix(0.26099174,0,0,0.26099174,87.627303,88.487053)"
     id="g3868"><g
       id="g3812">
	<path
   d="M 421.125,134.191 C 409.517,107.161 393.908,83.844 374.306,64.242 354.7,44.639 331.384,29.033 304.353,17.42 277.325,5.807 248.969,0.005 219.275,0.005 191.297,0.005 164.223,5.282 138.048,15.848 111.879,26.412 88.61,41.305 68.243,60.531 L 31.123,23.696 C 25.412,17.795 18.848,16.464 11.422,19.697 3.807,22.937 0,28.554 0,36.547 v 127.907 c 0,4.948 1.809,9.231 5.426,12.847 3.619,3.617 7.902,5.426 12.85,5.426 h 127.907 c 7.996,0 13.61,-3.807 16.846,-11.421 3.234,-7.423 1.903,-13.988 -3.999,-19.701 l -39.115,-39.398 c 13.328,-12.563 28.553,-22.222 45.683,-28.98 17.131,-6.757 35.021,-10.138 53.675,-10.138 19.793,0 38.687,3.858 56.674,11.563 17.99,7.71 33.544,18.131 46.679,31.265 13.134,13.131 23.555,28.69 31.265,46.679 7.703,17.987 11.56,36.875 11.56,56.674 0,19.798 -3.856,38.686 -11.56,56.672 -7.71,17.987 -18.131,33.544 -31.265,46.679 -13.135,13.134 -28.695,23.558 -46.679,31.265 -17.987,7.707 -36.881,11.561 -56.674,11.561 -22.651,0 -44.064,-4.949 -64.241,-14.843 -20.174,-9.894 -37.209,-23.883 -51.104,-41.973 -1.331,-1.902 -3.521,-3.046 -6.567,-3.429 -2.856,0 -5.236,0.855 -7.139,2.566 L 51.108,347.17 c -1.521,1.53 -2.33,3.478 -2.426,5.853 -0.094,2.385 0.527,4.524 1.858,6.427 20.749,25.125 45.871,44.587 75.373,58.382 29.502,13.798 60.625,20.701 93.362,20.701 29.694,0 58.05,-5.808 85.078,-17.416 27.031,-11.607 50.34,-27.22 69.949,-46.821 19.605,-19.609 35.211,-42.921 46.822,-69.949 11.611,-27.028 17.411,-55.392 17.411,-85.08 10e-4,-29.698 -5.803,-58.047 -17.41,-85.076 z"
   id="path3810" />
</g><g
       id="g3814">
</g><g
       id="g3816">
</g><g
       id="g3818">
</g><g
       id="g3820">
</g><g
       id="g3822">
</g><g
       id="g3824">
</g><g
       id="g3826">
</g><g
       id="g3828">
</g><g
       id="g3830">
</g><g
       id="g3832">
</g><g
       id="g3834">
</g><g
       id="g3836">
</g><g
       id="g3838">
</g><g
       id="g3840">
</g><g
       id="g3842">
</g></g></g></svg>