<?xml version="1.0" encoding="iso-8859-1"?>
<!-- Generator: Adobe Illustrator 17.1.0, SVG Export Plug-In . SVG Version: 6.00 Build 0)  -->
<!DOCTYPE svg PUBLIC "-//W3C//DTD SVG 1.1//EN" "http://www.w3.org/Graphics/SVG/1.1/DTD/svg11.dtd">
<svg xmlns="http://www.w3.org/2000/svg" xmlns:xlink="http://www.w3.org/1999/xlink" version="1.1" id="Capa_1" x="0px" y="0px" viewBox="0 0 202.882 202.882" style="enable-background:new 0 0 202.882 202.882;" xml:space="preserve" width="512px" height="512px">
<path d="M107.613,117.839L82.596,92.822l48.164-40.466l17.319,17.319L107.613,117.839z M189.924,9.311  c-0.211-1.258-0.424-2.253-0.621-3.036c-0.538,0.669-1.198,1.549-1.999,2.708c-4.048,5.859-9.49,9.223-15.736,9.73  c-0.867,0.07-1.756,0.106-2.644,0.106c-3.341,0-6.313-0.499-8.935-0.938c-2.153-0.361-4.186-0.702-6.07-0.702  c-2.376,0-5.372,0.46-9.576,3.872c-7.462,6.056-8.058,18.256-8.009,22.741l19.658,19.658c0.509,0.036,1.146,0.064,1.889,0.064  c5.303,0,15.611-1.411,25.06-10.86C193.774,41.82,192.363,23.8,189.924,9.311z M180.43,186.666c-0.276,0.276-0.554,0.549-0.833,0.82  c-5.699,5.522-13.214,8.564-21.157,8.564c-8.138,0-15.789-3.168-21.543-8.922l-21.689-21.689c-3.861-3.861-8.994-5.987-14.454-5.987  c-5.46,0-10.593,2.126-14.454,5.987l-5.928,5.928c-5.725,5.725-13.334,8.878-21.427,8.878c-0.001,0-0.001,0-0.002,0  c-3.323,0-6.556-0.544-9.607-1.577c14.046-12.563,30.396-28.692,48.771-47.08l3.708-3.71c0.287-0.287,0.562-0.566,0.845-0.851  l1.74,1.74c0.94,0.939,2.212,1.464,3.535,1.464c0.072,0,0.145-0.001,0.217-0.005c1.4-0.061,2.71-0.706,3.612-1.779l46.155-54.935  c5.51-0.005,15.149-1.175,24.937-7.842C209.825,106.802,210.079,157.016,180.43,186.666z M182.788,126.52  c0-2.761-1.075-5.356-3.027-7.308c-1.953-1.953-4.548-3.027-7.309-3.027s-5.356,1.075-7.309,3.027c-4.03,4.03-4.03,10.587,0,14.617  c1.952,1.952,4.548,3.027,7.309,3.027s5.356-1.075,7.308-3.027C181.714,131.876,182.788,129.28,182.788,126.52z M21.112,151.304  C-6.929,109.878-7.59,58.728,22.451,28.687c14.53-14.53,34.94-22.532,57.471-22.532c17.703,0,35.716,4.769,52.44,13.555  c-5.236,8.175-6.028,18.18-6.04,23.314l-54.334,45.65c-1.073,0.901-1.718,2.211-1.779,3.612c-0.061,1.4,0.469,2.761,1.459,3.752  l1.74,1.74c-0.284,0.283-0.562,0.556-0.851,0.845c-2.964,2.964-6.021,6.005-9.129,9.098  C46.801,124.262,32.429,138.776,21.112,151.304z M82.248,40.593c0,2.761,1.075,5.356,3.027,7.308  c1.953,1.953,4.548,3.027,7.309,3.027s5.356-1.075,7.308-3.027c1.953-1.953,3.027-4.548,3.027-7.309s-1.075-5.356-3.027-7.309  c-1.952-1.952-4.547-3.027-7.308-3.027s-5.356,1.075-7.308,3.027C83.323,35.237,82.248,37.833,82.248,40.593z M26.642,61.342  c0,3.361,1.309,6.521,3.686,8.898c2.376,2.377,5.537,3.686,8.898,3.686s6.521-1.309,8.898-3.686  c2.377-2.376,3.686-5.537,3.686-8.898s-1.309-6.521-3.686-8.898s-5.537-3.686-8.898-3.686s-6.521,1.309-8.898,3.686  C27.952,54.82,26.642,57.98,26.642,61.342z M91.031,124.519l3.711-3.713c0.287-0.287,0.562-0.566,0.845-0.851l-15.107-15.107  c-0.285,0.283-0.562,0.556-0.851,0.845c-2.971,2.97-6.033,6.017-9.147,9.115c-17.355,17.267-37.026,36.837-50.475,53.005  C-0.045,191.92,3.93,196.484,3.973,196.527c0.17,0.174,0.652,0.2,0.924,0.2c3.257,0,12.176-3.033,35.319-23.349  C56.425,159.15,74.81,140.751,91.031,124.519z" fill="#888888"/>
<g>
</g>
<g>
</g>
<g>
</g>
<g>
</g>
<g>
</g>
<g>
</g>
<g>
</g>
<g>
</g>
<g>
</g>
<g>
</g>
<g>
</g>
<g>
</g>
<g>
</g>
<g>
</g>
<g>
</g>
</svg>
